<svg width="14" height="14" viewBox="0 0 14 14" fill="none" xmlns="http://www.w3.org/2000/svg">
<g clip-path="url(#clip0_83_43)">
<path d="M13.9992 10.4611C13.9992 10.5378 13.9969 10.704 13.9923 10.8324C13.981 11.1467 13.9561 11.5521 13.9184 11.7369C13.8618 12.0145 13.7764 12.2765 13.6649 12.4946C13.5331 12.7526 13.3649 12.9837 13.1651 13.1832C12.9657 13.3823 12.7348 13.5498 12.4772 13.6811C12.258 13.7928 11.9943 13.8783 11.7151 13.9347C11.5322 13.9716 11.1298 13.996 10.8175 14.0071C10.689 14.0117 10.5227 14.014 10.4464 14.014L3.55264 14.0129C3.47598 14.0129 3.30976 14.0106 3.18134 14.006C2.86712 13.9947 2.46166 13.9698 2.27692 13.9321C1.99929 13.8755 1.73725 13.7901 1.51915 13.6786C1.26114 13.5468 1.03004 13.3786 0.830582 13.1788C0.63152 12.9794 0.464012 12.7485 0.332721 12.4909C0.220967 12.2716 0.135463 12.008 0.0790937 11.7288C0.0421797 11.5459 0.017748 11.1435 0.00663281 10.8312C0.00206641 10.7027 -0.000244141 10.5364 -0.000244141 10.4601L0.000849609 3.56632C0.000849609 3.48967 0.0031875 3.32343 0.00779492 3.19501C0.0190742 2.88079 0.0439707 2.47534 0.0816367 2.2906C0.138252 2.01298 0.223701 1.75093 0.335141 1.53282C0.466979 1.27482 0.635156 1.04371 0.834971 0.844254C1.03436 0.645205 1.26525 0.477684 1.52287 0.346379C1.74213 0.234652 2.00582 0.149148 2.28501 0.0927793C2.4679 0.0558516 2.87033 0.0314199 3.18254 0.0203184C3.31108 0.0157383 3.47737 0.0134277 3.55372 0.0134277L10.4474 0.0145352C10.5241 0.0145352 10.6903 0.016873 10.8188 0.0214805C11.133 0.0327598 11.5384 0.0576562 11.7232 0.0953223C12.0008 0.151937 12.2628 0.237387 12.4809 0.348826C12.7389 0.480664 12.97 0.648842 13.1695 0.848656C13.3686 1.04805 13.5361 1.27892 13.6674 1.53656C13.7791 1.75581 13.8646 2.01949 13.921 2.29868C13.9579 2.48158 13.9823 2.884 13.9935 3.19623C13.998 3.32477 14.0003 3.49105 14.0003 3.56742L13.9992 10.4611V10.4611Z" fill="#242833"/>
<path d="M10.7093 3.32565C9.7614 2.377 8.50086 1.85429 7.15781 1.85376C4.3906 1.85376 2.13842 4.10508 2.13731 6.87232C2.13696 7.75688 2.36813 8.62033 2.80746 9.38141L2.09521 11.9822L4.75665 11.2843C5.48995 11.6841 6.31554 11.8948 7.15582 11.8952H7.15788C9.92482 11.8952 12.1772 9.64358 12.1783 6.87631C12.1789 5.53528 11.6571 4.2743 10.7093 3.32565ZM7.15788 11.0475H7.15617C6.40741 11.0472 5.67301 10.8462 5.03233 10.4661L4.87994 10.3757L3.30061 10.7898L3.72217 9.2505L3.62292 9.09267C3.20522 8.42851 2.98461 7.66083 2.98494 6.87265C2.98584 4.57264 4.85778 2.70142 7.1595 2.70142C8.27404 2.70184 9.32176 3.13633 10.1096 3.9248C10.8974 4.71327 11.3311 5.76137 11.3307 6.876C11.3298 9.1762 9.45783 11.0475 7.15788 11.0475ZM9.44676 7.92331C9.32129 7.86054 8.70457 7.55715 8.58957 7.5153C8.47459 7.47343 8.39098 7.45252 8.30732 7.57808C8.22371 7.70361 7.98331 7.98609 7.91011 8.06977C7.83694 8.15347 7.76377 8.16394 7.63833 8.10116C7.51287 8.0384 7.10868 7.90597 6.62953 7.47874C6.25663 7.14625 6.00485 6.73555 5.93168 6.60999C5.85851 6.48444 5.9239 6.41658 5.9867 6.35405C6.04312 6.29787 6.11213 6.20758 6.17486 6.13436C6.23757 6.06114 6.25849 6.00881 6.3003 5.92512C6.34212 5.84142 6.3212 5.76818 6.28984 5.70541C6.25849 5.64265 6.0076 5.02539 5.90306 4.7743C5.80125 4.52977 5.69781 4.56286 5.62081 4.55901C5.54772 4.55538 5.46401 4.55461 5.38039 4.55461C5.29677 4.55461 5.16086 4.58599 5.04588 4.71154C4.9309 4.83709 4.60683 5.14048 4.60683 5.75772C4.60683 6.37497 5.05632 6.97129 5.11905 7.05498C5.18178 7.13868 6.00361 8.40536 7.26199 8.94856C7.5613 9.07776 7.79495 9.15492 7.97714 9.21273C8.27765 9.30814 8.55111 9.29469 8.76728 9.26241C9.00829 9.22641 9.50945 8.95905 9.61401 8.66611C9.71854 8.37317 9.71854 8.12209 9.68718 8.06979C9.65582 8.01748 9.5722 7.98609 9.44676 7.92331Z" fill="#E6EAF6"/>
</g>
<defs>
<clipPath id="clip0_83_43">
<rect width="14" height="14" fill="white"/>
</clipPath>
</defs>
</svg>
